<?xml version="1.0" encoding="UTF-8"?>
<!--
Image by <a href="https://pixabay.com/users/OpenClipart-Vectors-30363/?utm_source=link-attribution&amp;utm_medium=referral&amp;utm_campaign=image&amp;utm_content=160471">OpenClipart-Vectors</a> from <a href="https://pixabay.com/?utm_source=link-attribution&amp;utm_medium=referral&amp;utm_campaign=image&amp;utm_content=160471">Pixabay</a>
-->
<svg enable-background="new 0 0 179.167 232.5" viewBox="0 0 179.167 232.5" xmlns="http://www.w3.org/2000/svg">
 <path d="m16.574 113.32c15.69 20.322 58.41 26.503 58.41 26.503s4.827-42.894-10.863-63.216c-15.696-20.324-32.84-20.524-45.97-10.387s-17.273 26.775-1.577 47.1z" fill="#fff" stroke="#010101" stroke-miterlimit="10" stroke-width="5"/>
 <path d="m142.25 163.25c-25.361 4.01-60.671-20.814-60.671-20.814s25.929-34.51 51.29-38.52 37.97 7.611 40.56 23.996c2.591 16.385-5.813 31.329-31.179 35.338z" fill="#fff" stroke="#010101" stroke-miterlimit="10" stroke-width="5"/>
 <path d="m129.64 59.188s4.616-7.479 8.813-11.836c4.194-4.358 17.268-10.942 17.268-10.942s-9.698 8.869-12.278 11.786-8.084 13.265-8.084 13.265l-5.719-2.273z" fill="#010101" stroke="#010101" stroke-miterlimit="10"/>
 <path d="m160.82 38.467a8.655 8.655 0 1 0 -17.31 0 8.655 8.655 0 1 0 17.31 0" fill="#fcee23" stroke="#010101" stroke-miterlimit="10" stroke-width="5"/>
 <path d="m95.143 45.48s1.776-8.606 1.716-14.656-5.049-19.809-5.049-19.809 0.968 13.105 0.843 16.999-3.228 15.195-3.228 15.195l5.718 2.271z" fill="#010101" stroke="#010101" stroke-miterlimit="10"/>
 <path d="m101.64 14.952a8.656 8.656 0 1 0 -17.312 0 8.656 8.656 0 1 0 17.312 0" fill="#fcee23" stroke="#010101" stroke-miterlimit="10" stroke-width="5"/>
 <path d="m76.181,188.59c-5.274,13.282-33.239,36.55-33.239,36.55s-4.364-36.111.911-49.396l32.328,12.846z" fill="#150e0f" stroke="#010101" stroke-miterlimit="10" stroke-width="5"/>
 <path transform="matrix(-.9293 -.3693 .3693 -.9293 87.353 316.59)" d="m113.86 149.94a39.878 42.847 0 1 0 -79.756 0 39.878 42.847 0 1 0 79.756 0" fill="#fcee23" stroke="#010101" stroke-miterlimit="10" stroke-width="5"/>
 <path d="m143.73 100.49c-9.861 24.82-37.98 36.946-62.803 27.086s-36.947-37.982-27.085-62.804 34.223-27.486 59.042-17.623 40.71 28.52 30.846 53.341z" fill="#fcee23" stroke="#010101" stroke-miterlimit="10" stroke-width="5"/>
 <path d="m99.582,72.093c.699-5.092-1.186-9.708-4.966-11.209-4.737-1.882-10.661,1.835-13.231,8.305s-.812,13.239 3.923,15.123c3.597,1.428 7.872-.368 10.852-4.143l-6.416-7.659 9.838-.417z" fill="#010101" stroke="#010101" stroke-miterlimit="10" stroke-width="5"/>
 <path d="m124.181,81.869c.7-5.091-1.184-9.707-4.964-11.208-4.735-1.882-10.661,1.835-13.231,8.304s-.814,13.239 3.925,15.123c3.595,1.427 7.872-.368 10.85-4.143l-6.418-7.659 9.838-.417z" fill="#010101" stroke="#010101" stroke-miterlimit="10" stroke-width="5"/>
 <path d="m83.013 93.94c-3.223 11.218-1.188 21.646 4.541 23.293s12.989-6.112 16.213-17.328l-20.754-5.965z" fill="#010101" stroke="#010101" stroke-miterlimit="10" stroke-width="5"/>
 <path d="m39.905,129.833c-.979,1.75-1.861,3.582-2.624,5.502-2.094,5.27-3.131,10.677-3.229,15.968 6.176,8.476 17.39,16.774 31.423,22.354 13.407,5.326 26.644,7.072 36.783,5.545 3.798-4.033 6.943-8.882 9.142-14.414 .68-1.707 1.233-3.434 1.696-5.16-10.467,2.529-25.174,1.037-40.101-4.895-15.441-6.139-27.433-15.568-33.09-24.9z" fill="#150e0f" stroke="#010101" stroke-miterlimit="10" stroke-width="5"/>
</svg>
